# xmcd
#
# Track frame offsets: 
#        150
#        15779
#        33680
#        51248
#        67222
#        86176
#        104538
#        120240
#        138312
#        155580
#        180662
#        199415
#        213696
#        229438
#        248532
#        263705
#        278526
#        298006
#
# Disc length: 4229 seconds
#
# Revision: 0
# Processed by: cddbd v1.4PL0 Copyright (c) Steve Scherf et al.
# Submitted via: ExactAudioCopy v0.95a3
#
DISCID=0e108312
DTITLE=Various Artist - Especial Sertanejo - Volume 17
DYEAR=1900
DGENRE=Folklore
TTITLE0=Ligação Urbana - Bruno and Marrone
TTITLE1=Pra Nao Morrer de Amor - Cleiton and Camargo
TTITLE2=Tua Sombra em Meu Caminho - Leonardo
TTITLE3=Menina - Bruno and Marrone
TTITLE4=Chora no Meu Colo - Fábio and Fernando
TTITLE5=Você Virou Saudade - Emílio and Eduardo
TTITLE6=Chuvas de Verãro - André and Adriano
TTITLE7=Raio de Luar - Bruno and Marrone
TTITLE8=Amor Dividido - Negro Cosmo and Anisio Ramos
TTITLE9=O Meu Anjo Azul - Cleiton and Camargo
TTITLE10=Agenda Rabiscada - Vania Vilela
TTITLE11=Metade de Mim - René and Ronaldo
TTITLE12=Fonte de Desejos - Negro Cosmo and Anisio Ramos
TTITLE13=Te Perdi -  Luis Cláudio and Giuliano
TTITLE14=To Por aí - Di Paulo and Paulino
TTITLE15=Temporal de Lágrimas - Rionegro and Solimões
TTITLE16=Só pensando em Você - Rick and Renner
TTITLE17=Palavras - Daniel
EXTD=
EXTT0=
EXTT1=
EXTT2=
EXTT3=
EXTT4=
EXTT5=
EXTT6=
EXTT7=
EXTT8=
EXTT9=
EXTT10=
EXTT11=
EXTT12=
EXTT13=
EXTT14=
EXTT15=
EXTT16=
EXTT17=
PLAYORDER=
